<?xml version="1.0" encoding="utf-8"?>
<!-- Generator: Adobe Illustrator 26.2.1, SVG Export Plug-In . SVG Version: 6.00 Build 0)  -->
<svg version="1.1" id="Слой_1" xmlns="http://www.w3.org/2000/svg" xmlns:xlink="http://www.w3.org/1999/xlink" x="0px" y="0px"
	 viewBox="0 0 902.6 100" style="enable-background:new 0 0 902.6 100;" xml:space="preserve">
<style type="text/css">
	.st0{fill:#FFFFFF;}
</style>
<g>
	<path class="st0" d="M17.8,76c-0.1,1-0.1,1.6-0.1,2.2c0,3.5,2,8.1,13.7,8.1c7.6,0,11.4-2.6,11.4-6.5c0-4.1-4.2-5.4-9.6-6.7
		l-9.6-2.2C8,67.4,1.2,62.1,1.2,50.6c0-12,10.3-20.1,30.2-20.1c24.9,0,28.9,12,29.1,19.4c0,1.1,0,2-0.3,3.4l-17,0.3
		c0.1-1,0.1-1.6,0.1-2.2c0-3.1-2.3-7.3-12.5-7.3c-7.6,0-11.1,2.3-11.1,6.2c0,5.2,5.2,6,10.6,7.1l10.5,2.2c15.9,3.3,21.2,9.5,21.2,20
		c0,11-9.6,20.2-30.6,20.2C4.6,99.7,0,86.7,0,79c0-1,0.1-1.9,0.3-2.6L17.8,76z"/>
	<path class="st0" d="M138.4,98.4H124l-2.6-9.8h-0.8c-3.5,5.3-10.1,11.1-21.1,11.1C85,99.7,74.8,92.3,74.8,73V31.8h19.6v39.5
		c0,11.1,4.2,14.4,11.1,14.4c5.8,0,10.5-3.3,13.2-7.3V31.8h19.7V98.4z"/>
	<path class="st0" d="M156.1,31.8h14.4l2.4,9.8h1c3.5-5.3,10.1-11.1,20.9-11.1c14.7,0,24.7,7.5,24.7,26.8v41.2h-19.6V58.9
		c0-11.1-4.1-14.4-11.1-14.4c-5.8,0-10.3,3.3-13.2,7.3v46.6h-19.6V31.8z"/>
	<path class="st0" d="M267.6,30.5c27.8,0,30.7,16,30.7,23.2c0,1.1,0,2-0.3,3.5l-19.4,0.4c0.3-0.8,0.3-1.6,0.3-2.3
		c0-3.9-2.2-10.9-11.8-10.9c-9.1,0-14.5,5.2-14.5,20.8c0,13.3,4.9,20.5,14.5,20.5c9.6,0,11.8-6.8,11.8-10.9c0-0.5,0-1.4-0.3-2.2
		L298,73c0.3,1.4,0.3,2.6,0.3,3.5c0,6.7-2.9,23.2-30.7,23.2c-23.4,0-35-12.6-35-34.5C232.5,46.4,243.1,30.5,267.6,30.5z"/>
	<path class="st0" d="M311.9,0.6h19.6v39.7h1c1.6-2.6,7.2-9.8,20.4-9.8c13.3,0,23.5,7.5,23.5,26.8v41.2h-19.6V59
		c0-11.3-4.3-14.5-11.4-14.5c-8.4,0-12.5,6.8-13.9,9.4v44.6h-19.6V0.6z"/>
	<path class="st0" d="M393.2,0.6h19.6v37.5h0.8c3.3-3.8,9.5-7.6,18.7-7.6c14.5,0,28.4,9.2,28.4,34.5c0,25-13.4,34.8-28.4,34.8
		c-11.8,0-17.7-5.3-20.8-8.7h-0.8l-2.9,7.3h-14.7V0.6z M412.8,80c2.4,3.1,6.8,5.7,12.4,5.7c9.1,0,15.6-4.9,15.6-20.8
		c0-16-6.9-20.5-15.6-20.5c-4.6,0-9.4,2.4-12.4,5.8V80z"/>
	<path class="st0" d="M505.7,30.5c23.4,0,35,13.7,35,34.8c0,20.9-11.7,34.5-35,34.5c-23.6,0-35-13.6-35-34.5
		C470.6,44.2,482.1,30.5,505.7,30.5z M520.8,65.2c0-15.5-6-20.8-15.1-20.8c-9.4,0-15.2,5.3-15.2,20.8c0,15.2,5.8,20.5,15.2,20.5
		C514.8,85.7,520.8,80.5,520.8,65.2z"/>
	<path class="st0" d="M548.1,96.5l23.8-31.7l-23.2-31v-2h20.8l8.1,12c2.3,3.4,4.3,6.7,6.4,10.9h1c2.2-4.2,3.9-6.9,6.5-10.7l8.3-12.1
		h20.8v2L597,64.3l23.9,32.2v1.9h-20.8l-9.2-13.7c-2.9-4.2-3.8-6.2-6-10.2h-1c-2,4.1-3.7,6.7-6.1,10.5l-9,13.4h-20.8V96.5z"/>
	<path class="st0" d="M631.9,77.5h22.5v20.9h-22.5V77.5z"/>
	<path class="st0" d="M685.5,76c-0.1,1-0.1,1.6-0.1,2.2c0,3.5,2,8.1,13.7,8.1c7.6,0,11.4-2.6,11.4-6.5c0-4.1-4.2-5.4-9.6-6.7
		l-9.6-2.2c-15.5-3.5-22.3-8.8-22.3-20.4c0-12,10.3-20.1,30.2-20.1c24.9,0,28.9,12,29.1,19.4c0,1.1,0,2-0.3,3.4l-17,0.3
		c0.1-1,0.1-1.6,0.1-2.2c0-3.1-2.3-7.3-12.5-7.3c-7.6,0-11.1,2.3-11.1,6.2c0,5.2,5.2,6,10.6,7.1l10.5,2.2c15.9,3.3,21.2,9.5,21.2,20
		c0,11-9.6,20.2-30.6,20.2c-26.8,0-31.4-13-31.4-20.8c0-1,0.1-1.9,0.3-2.6L685.5,76z"/>
	<path class="st0" d="M743.2,4.5h19.6v16.7h-19.6V4.5z M743.2,31.8h19.6v66.6h-19.6V31.8z"/>
	<path class="st0" d="M785.6,43.9h-12.2V31.8H787l2.4-15.1h15.8v15.1h22.5v12.1h-22.5v31.8c0,6.1,2.2,8.8,8.6,8.8
		c3.9,0,8.7-1.4,13.3-3.4l1.2,15.5c-5.4,1.9-13.3,3.1-20.5,3.1c-15.5,0-22.1-6.7-22.1-21.5V43.9z"/>
	<path class="st0" d="M871.5,30.5c20.4,0,31.9,10.7,31.9,25.7c0,3.4-0.4,8.1-0.8,11.3h-46.9c0,13.2,5.6,18.7,15.5,18.7
		c10.2,0,13.2-5.2,13.2-9c0-0.4,0-1,0-1.8l18.2,0.4c0.1,0.8,0.3,1.8,0.3,2.4c0,7.6-4.3,21.5-31.8,21.5c-22.7,0-34.4-12.6-34.4-34.6
		C836.7,45.7,847.3,30.5,871.5,30.5z M885.3,56.3c0.1-0.7,0.1-1.4,0.1-1.8c0-7.5-6.4-11.3-13.9-11.3c-8.7,0-14.5,3.9-15.3,13H885.3z
		"/>
</g>
</svg>
