<?xml version="1.0" encoding="utf-8"?>
<!-- Generator: Adobe Illustrator 26.2.1, SVG Export Plug-In . SVG Version: 6.00 Build 0)  -->
<svg version="1.1" id="Слой_1" xmlns="http://www.w3.org/2000/svg" xmlns:xlink="http://www.w3.org/1999/xlink" x="0px" y="0px"
	 viewBox="0 0 902.6 100" style="enable-background:new 0 0 902.6 100;" xml:space="preserve">
<style type="text/css">
	.st0{fill:#FFFFFF;}
</style>
<g>
	<path class="st0" d="M117.9,65.8c-0.1,0.7-0.1,1.3-0.1,1.7c0,2.7,1.6,6.3,10.6,6.3c5.9,0,8.8-2,8.8-5.1c0-3.2-3.3-4.2-7.5-5.2
		l-7.5-1.7c-12-2.7-17.3-6.8-17.3-15.8c0-9.3,8-15.6,23.4-15.6c19.3,0,22.4,9.3,22.5,15.1c0,0.8,0,1.6-0.2,2.6l-13.2,0.2
		c0.1-0.7,0.1-1.3,0.1-1.7c0-2.4-1.8-5.7-9.7-5.7c-5.9,0-8.6,1.8-8.6,4.8c0,4,4,4.6,8.2,5.5l8.1,1.7c12.3,2.5,16.4,7.4,16.4,15.5
		c0,8.5-7.5,15.7-23.7,15.7c-20.7,0-24.3-10.1-24.3-16.1c0-0.7,0.1-1.5,0.2-2L117.9,65.8z"/>
	<path class="st0" d="M211.4,83.1h-11.2l-2-7.6h-0.6c-2.7,4.1-7.8,8.6-16.3,8.6c-11.3,0-19.2-5.8-19.2-20.7V31.5h15.2v30.6
		c0,8.6,3.3,11.2,8.6,11.2c4.5,0,8.1-2.5,10.2-5.7V31.5h15.3V83.1z"/>
	<path class="st0" d="M225.1,31.5h11.2l1.9,7.6h0.7c2.7-4.1,7.8-8.6,16.2-8.6c11.4,0,19.2,5.8,19.2,20.7v31.9h-15.2V52.5
		c0-8.6-3.2-11.2-8.6-11.2c-4.5,0-8,2.5-10.2,5.7v36.1h-15.2V31.5z"/>
	<path class="st0" d="M311.5,30.5c21.6,0,23.8,12.4,23.8,18c0,0.8,0,1.6-0.2,2.7l-15.1,0.3c0.2-0.6,0.2-1.3,0.2-1.8
		c0-3.1-1.7-8.4-9.2-8.4c-7.1,0-11.3,4-11.3,16.1c0,10.3,3.8,15.9,11.3,15.9s9.2-5.3,9.2-8.4c0-0.4,0-1.1-0.2-1.7l15.1,0.2
		c0.2,1.1,0.2,2,0.2,2.7c0,5.2-2.2,18-23.8,18c-18.1,0-27.2-9.8-27.2-26.8C284.4,42.8,292.6,30.5,311.5,30.5z"/>
	<path class="st0" d="M345.9,7.3H361v30.8h0.7c1.3-2,5.6-7.6,15.8-7.6c10.3,0,18.2,5.8,18.2,20.7v31.9h-15.2V52.6
		c0-8.7-3.4-11.3-8.8-11.3c-6.5,0-9.7,5.3-10.7,7.3v34.5h-15.2V7.3z"/>
	<path class="st0" d="M408.9,7.3h15.2v29.1h0.6c2.5-2.9,7.4-5.9,14.5-5.9c11.3,0,22,7.2,22,26.8c0,19.4-10.4,27-22,27
		c-9.2,0-13.7-4.1-16.1-6.7h-0.6l-2.2,5.7h-11.4V7.3z M424.1,68.9c1.9,2.4,5.3,4.4,9.6,4.4c7.1,0,12.1-3.8,12.1-16.1
		c0-12.4-5.4-15.9-12.1-15.9c-3.6,0-7.3,1.9-9.6,4.5V68.9z"/>
	<path class="st0" d="M496.1,30.5c18.1,0,27.2,10.6,27.2,27c0,16.2-9.1,26.8-27.2,26.8c-18.3,0-27.2-10.5-27.2-26.8
		C469,41.1,477.8,30.5,496.1,30.5z M507.8,57.5c0-12-4.6-16.1-11.7-16.1c-7.3,0-11.8,4.1-11.8,16.1c0,11.8,4.5,15.9,11.8,15.9
		C503.2,73.4,507.8,69.2,507.8,57.5z"/>
	<path class="st0" d="M529,81.7l18.4-24.5l-18-24v-1.6h16.1l6.3,9.3c1.8,2.6,3.4,5.2,4.9,8.4h0.7c1.7-3.3,3.1-5.4,5.1-8.3l6.4-9.4
		h16.1v1.6l-18.2,23.6l18.5,25v1.5h-16.1l-7.2-10.6c-2.2-3.3-2.9-4.8-4.6-7.9h-0.7c-1.6,3.2-2.8,5.2-4.7,8.1l-6.9,10.4H529V81.7z"/>
	<path class="st0" d="M594,66.9h17.5v16.2H594V66.9z"/>
	<path class="st0" d="M635.6,65.8c-0.1,0.7-0.1,1.3-0.1,1.7c0,2.7,1.6,6.3,10.6,6.3c5.9,0,8.8-2,8.8-5.1c0-3.2-3.3-4.2-7.5-5.2
		l-7.5-1.7c-12-2.7-17.3-6.8-17.3-15.8c0-9.3,8-15.6,23.4-15.6c19.3,0,22.4,9.3,22.5,15.1c0,0.8,0,1.6-0.2,2.6l-13.2,0.2
		c0.1-0.7,0.1-1.3,0.1-1.7c0-2.4-1.8-5.7-9.7-5.7c-5.9,0-8.6,1.8-8.6,4.8c0,4,4,4.6,8.2,5.5l8.1,1.7c12.3,2.5,16.4,7.4,16.4,15.5
		c0,8.5-7.5,15.7-23.7,15.7c-20.7,0-24.3-10.1-24.3-16.1c0-0.7,0.1-1.5,0.2-2L635.6,65.8z"/>
	<path class="st0" d="M680.3,10.4h15.2v13h-15.2V10.4z M680.3,31.5h15.2v51.6h-15.2V31.5z"/>
	<path class="st0" d="M713.2,40.9h-9.5v-9.4h10.5l1.9-11.7h12.2v11.7h17.5v9.4h-17.5v24.6c0,4.7,1.7,6.8,6.6,6.8
		c3.1,0,6.7-1.1,10.3-2.6l0.9,12c-4.2,1.5-10.3,2.4-15.9,2.4c-12,0-17.2-5.2-17.2-16.6V40.9z"/>
	<path class="st0" d="M779.7,30.5c15.8,0,24.7,8.3,24.7,19.9c0,2.6-0.3,6.3-0.6,8.7h-36.3c0,10.2,4.3,14.5,12,14.5
		c7.9,0,10.2-4,10.2-6.9c0-0.3,0-0.7,0-1.4l14.1,0.3c0.1,0.6,0.2,1.4,0.2,1.9c0,5.9-3.4,16.6-24.6,16.6c-17.6,0-26.6-9.8-26.6-26.9
		C752.8,42.3,761,30.5,779.7,30.5z M790.5,50.5c0.1-0.5,0.1-1.1,0.1-1.4c0-5.8-4.9-8.7-10.7-8.7c-6.7,0-11.3,3.1-11.9,10.1H790.5z"
		/>
</g>
</svg>
